<svg fill="none" height="44" viewBox="0 0 138 44" width="138" xmlns="http://www.w3.org/2000/svg"><path clip-rule="evenodd" d="m17.7938 36.9795s17.5158 1.7747 26.9916.48c0 0 53.594 2.9055 66.9866.5414 0 0 23.766-.1814 23.784-3.8413.018-3.6598-16.405-2.6149-19.457-1.5342 0 0 9.307-6.4613-16.2113-4.5718 0 0 3.4873-6.4875-6.2742-4.3436 0 0-.403-11.9117-17.4727-5.8661-2.0873-20.08009-38.3631-17.83710408-36.7467-1.1306 0 0-20.06-8.69447-18.3995 9.2743-9.806-1.7951-37.5891 8.5431-3.2008 10.9919z" fill="#f4414d" fill-rule="evenodd"/></svg>