<svg width="178" height="174" viewBox="0 0 178 174" fill="none" xmlns="http://www.w3.org/2000/svg">
<path d="M36.1667 173.801L167.736 150.098C174.516 148.876 179.019 142.374 177.801 135.582L156.312 15.5071C155.094 8.70493 148.613 4.18683 141.843 5.40902L10.2643 29.1115C3.48414 30.3337 -1.01933 36.8353 0.198904 43.6275L21.6877 163.693C22.9059 170.495 29.3865 175.023 36.1667 173.801Z" fill="#EDEFF5"/>
<mask id="mask0" mask-type="alpha" maskUnits="userSpaceOnUse" x="0" y="5" width="178" height="169">
<path d="M36.1667 173.801L167.736 150.098C174.516 148.876 179.019 142.374 177.801 135.582L156.312 15.5071C155.094 8.70493 148.613 4.18683 141.843 5.40902L10.2643 29.1115C3.48414 30.3337 -1.01933 36.8353 0.198904 43.6275L21.6877 163.693C22.9059 170.495 29.3865 175.023 36.1667 173.801Z" fill="#EF3F54"/>
</mask>
<g mask="url(#mask0)">
<path d="M126.735 157.451C126.735 157.451 114.493 175.023 108.961 175.664C103.429 176.305 93.2739 159.305 93.2739 159.305L108.951 160.036L122.182 152.903L126.735 157.451Z" fill="#CE7F67"/>
<path d="M99.1154 136.534L101.502 155.117C101.502 155.117 93.7731 161.188 93.2838 159.305C93.2838 159.305 108.232 174.502 109.81 169.744C111.138 165.726 102.351 138.838 99.5447 128.98C99.1154 127.458 98.656 127.498 98.656 127.498C98.656 127.498 96.2395 128.66 98.007 133.849L98.8857 136.304" fill="#CE7F67"/>
<path d="M71.6052 117.65C71.6052 117.65 77.956 115.166 86.8531 118.842L87.9715 122.198L71.6052 121.377V117.65Z" fill="#B92B36"/>
<path d="M90.0985 9.88704C90.0985 9.88704 105.846 2.45372 121.054 12.8624C137.58 24.1726 137.18 48.8268 134.694 62.1206C129.022 92.435 143.062 100.85 124.978 113.873C101.702 130.623 51.3447 106.57 44.974 101.662C38.6032 96.7527 93.3038 85.4024 93.3038 85.4024C93.3038 85.4024 104.278 65.8473 104.557 40.9828C104.837 16.1182 90.0985 9.88704 90.0985 9.88704Z" fill="#2A2D39"/>
<path d="M85.0058 123.29C87.7119 122.839 89.2197 122.118 89.9686 121.647C88.4408 120.415 86.5236 118.712 86.5236 118.712L89.3195 102.713L73.5524 101.331L72.3142 117.77C76.7677 120.535 82.5194 123.701 85.0058 123.29Z" fill="#9E5E57"/>
<path d="M91.6262 122.849C91.3067 122.689 90.6776 122.218 89.9686 121.647C89.2197 122.128 87.7119 122.849 85.0058 123.29C82.5194 123.701 76.7678 120.535 72.3242 117.77L72.3143 117.891C72.3143 117.891 69.8079 123.601 68.6596 124.192C64.4657 126.356 67.5911 130.123 67.5911 130.123L81.3312 138.518L99.5547 128.98C99.5547 128.98 98.8158 126.476 91.6262 122.849Z" fill="#CE7F67"/>
<path d="M102.87 190.15C97.977 174.602 99.4749 162.31 101.502 155.107C104.887 143.056 98.9257 132.978 98.9257 132.978L97.5477 124.452L89.1698 120.465C89.1698 120.465 86.5736 134.1 84.9959 134.09C84.0772 134.08 73.0632 120.165 73.0632 120.165C73.0632 120.165 69.9477 120.636 68.6596 121.086C68.6596 121.086 59.7126 124.432 57.9751 125.514C58.5343 125.244 57.1763 153.575 57.1763 153.575C66.1433 177.277 59.0036 182.346 59.7326 190.401C59.9922 193.306 103.439 191.963 102.87 190.15Z" fill="#EF3F54"/>
<path d="M87.0728 126.807C89.9885 129.612 93.5634 133.018 93.5634 133.018C93.5634 133.018 93.0142 125.604 92.405 121.998C91.9956 121.006 86.5336 118.712 86.5336 118.712C86.5336 118.712 87.0229 125.284 87.0728 126.807Z" fill="#BD1A3B"/>
<path d="M87.9616 122.208L84.7163 131.765L74.9006 122.158L72.6039 125.194L85.4053 138.017L88.8503 126.797L87.9616 122.208Z" fill="#BD1A3B"/>
<path d="M71.6054 117.65C71.6054 117.65 75.5896 122.859 80.4625 127.598C79.8135 129.371 73.8821 134.09 73.8821 134.09L67.2417 120.926L71.6054 117.65Z" fill="#BD1A3B"/>
<path d="M81.3111 153.274L68.7494 160.908L64.3757 132.587C62.1889 127.548 54.4002 128.039 54.55 135.763C54.8495 150.9 61.6097 169.854 65.2944 171.917C69.6581 174.362 82.7391 160.357 82.7391 160.357C83.6577 162.08 81.3111 153.274 81.3111 153.274Z" fill="#CE7F67"/>
<path d="M53.262 135.362C53.262 127.728 57.9751 125.524 57.9751 125.524C60.0122 125.114 65.0748 124.983 66.4928 133.078C67.2517 137.416 70.4071 144.398 71.4056 151.811C66.323 153.835 60.4615 154.907 55.2191 154.316C54.0109 145.941 53.262 141.333 53.262 135.362Z" fill="#EF3F54"/>
<path d="M68.0005 138.017C68.4299 139.139 68.8093 140.261 69.1688 141.393C69.5482 142.515 69.8878 143.647 70.2173 144.789C70.8763 147.063 71.4954 149.327 71.8349 151.691L71.8948 152.152L71.5753 152.232L68.9192 152.903L71.2158 151.411L70.9662 151.952C70.0076 149.758 69.4184 147.444 68.9491 145.119C68.7095 143.957 68.4998 142.785 68.35 141.603C68.1902 140.401 68.0604 139.219 68.0005 138.017Z" fill="#BD1A3B"/>
<path d="M97.5474 124.462C101.612 126.746 104.787 130.814 107.084 150.018C102.98 150.749 99.0553 151.451 98.9254 152.162L90.5975 141.673L96.4291 126.085L97.5474 124.462Z" fill="#EF3F54"/>
<path d="M96.8885 140.591C96.7786 140.591 96.6987 140.631 96.6089 140.752L95.5005 142.264L95.0711 140.782C95.0311 140.631 94.9313 140.581 94.8414 140.581C94.7016 140.581 94.6417 140.641 94.5618 140.762L93.5833 142.735H94.1325L94.7915 141.373L95.2109 142.735H95.6702L96.6688 141.383V142.735H97.1381L97.1281 140.842C97.1181 140.671 97.0083 140.591 96.8885 140.591Z" fill="white"/>
<path d="M92.9243 140.952L92.485 142.755H92.9843L93.4136 140.942L92.9243 140.952Z" fill="white"/>
<path d="M92.0654 141.463C92.0954 141.222 91.9556 140.952 91.4563 140.952H90.4877L90.0583 142.755H90.5576L90.7174 142.074H90.967L91.4064 142.755H91.9456L91.4563 142.034C91.8957 141.924 92.0455 141.703 92.0654 141.463ZM91.1468 141.773H90.7973L90.9271 141.232H91.2966C91.4963 141.232 91.5961 141.323 91.5761 141.493C91.5562 141.663 91.3864 141.773 91.1468 141.773Z" fill="white"/>
<path d="M99.1851 142.744H99.6644L99.215 141.081C99.1551 140.891 99.0353 140.841 98.9155 140.851C98.8356 140.861 98.7557 140.891 98.6758 141.001L97.4875 142.744H97.9768L98.2165 142.374H99.0952L99.1851 142.744ZM98.4162 142.073L98.8556 141.412L99.0253 142.073H98.4162Z" fill="white"/>
<path d="M101.172 142.404C100.773 142.393 100.543 142.173 100.573 141.883C100.613 141.492 100.973 141.251 101.472 141.261C101.622 141.261 101.811 141.271 101.981 141.312L102.071 140.951C101.931 140.921 101.692 140.891 101.532 140.891C100.683 140.891 100.144 141.292 100.074 141.873C100.014 142.394 100.383 142.764 101.172 142.764C101.332 142.764 101.472 142.754 101.662 142.714L101.761 142.323C101.562 142.383 101.412 142.404 101.172 142.404Z" fill="white"/>
<path d="M101.502 155.107C101.851 153.184 102.271 151.361 102.301 149.467C102.391 147.594 102.341 145.73 102.081 143.867C101.821 142.014 101.432 140.171 100.893 138.347C100.354 136.534 99.7045 134.741 98.9257 132.978C100.114 134.51 101.023 136.243 101.772 138.047C102.5 139.85 103.04 141.753 103.329 143.697C103.669 145.63 103.649 147.634 103.389 149.577L103.13 151.03C103 151.511 102.84 151.972 102.7 152.443C102.57 152.913 102.381 153.364 102.161 153.805C101.951 154.246 101.732 154.687 101.502 155.107Z" fill="#BD1A3B"/>
<path d="M86.5936 150.259C86.5936 150.259 87.003 149.227 86.9431 148.475C86.8832 147.714 86.9232 147.103 89.1699 145.45C90.0686 144.799 91.2868 142.515 92.3153 141.693C93.8731 140.461 96.659 139.97 97.1783 139.069C98.746 136.414 99.9842 140.03 99.415 141.383C98.736 142.996 96.5492 142.885 95.0713 144.037C92.7946 147.804 90.6278 148.716 89.9388 149.337C89.11 150.098 86.5936 150.259 86.5936 150.259Z" fill="#CE7F67"/>
<path d="M82.7491 160.347C85.4052 161.639 87.5022 159.245 87.5022 159.245C88.281 159.836 88.0514 160.577 90.0884 160.447C91.2667 160.367 93.3237 158.473 95.5405 155.708C97.7673 152.923 96.1097 150.108 96.1097 150.108C96.1097 150.108 91.6462 146.612 91.1369 146.021C90.4878 145.28 89.4793 144.769 88.7204 145.41C88.1612 145.881 88.1412 146.191 87.4023 146.412C86.6734 146.632 85.9744 146.983 85.4452 147.824C84.7861 148.896 84.886 148.976 84.2669 149.327C83.6478 149.678 83.5579 149.768 83.4481 150.299C83.3382 150.83 79.3939 155.027 79.3939 155.027L73.3228 162.11L77.1372 165.286L82.7491 160.347Z" fill="#CE7F67"/>
<path d="M92.6147 158.523C92.2053 158.213 92.1553 157.842 92.1154 157.522L92.0555 157.041L91.9357 156.58C91.7459 155.969 91.4164 155.408 90.9571 154.957C90.4977 154.496 89.9186 154.136 89.3095 153.825C88.7203 153.474 88.0114 153.254 87.5121 152.723C88.1112 153.094 88.8002 153.204 89.4692 153.444C90.1383 153.675 90.8073 153.995 91.3865 154.476C91.9556 154.957 92.415 155.618 92.6546 156.339L92.8144 156.89L92.8943 157.441C92.9442 157.802 92.9442 158.133 92.6147 158.523Z" fill="#9E5E57"/>
<path d="M95.1311 155.308C94.9214 154.967 94.7617 154.606 94.6219 154.226C94.562 154.035 94.502 153.835 94.4621 153.635C94.4022 153.424 94.3922 153.374 94.2624 153.234C93.843 152.743 93.154 152.332 92.5249 151.952L90.5378 150.79C89.8788 150.389 89.1798 150.008 88.6106 149.437C89.3296 149.738 90.0885 149.918 90.8074 150.239C91.5364 150.529 92.2353 150.87 92.9243 151.28C93.5834 151.711 94.2924 152.122 94.7717 152.903C94.8915 153.064 94.9714 153.414 94.9614 153.585C94.9614 153.775 94.9714 153.955 94.9814 154.146C95.0013 154.536 95.0812 154.907 95.1311 155.308Z" fill="#9E5E57"/>
<path d="M93.2239 147.814C92.5149 147.614 91.9557 147.243 91.4165 146.842C90.8873 146.422 90.4179 145.981 89.9985 145.37C90.7474 145.45 91.3466 145.821 91.8858 146.221C92.425 146.662 92.9043 147.143 93.2239 147.814Z" fill="#9E5E57"/>
<path d="M89.8986 158.193C89.2795 158.343 88.7103 158.193 88.201 157.952C87.7018 157.692 87.2225 157.311 86.9928 156.72C87.6119 156.83 88.0612 157.031 88.5405 157.251C89.0099 157.492 89.4592 157.742 89.8986 158.193Z" fill="#9E5E57"/>
<path d="M89.1797 159.295C88.7504 159.355 88.4009 159.155 88.2111 158.754C88.1313 158.553 88.1113 158.263 88.2511 158.053C88.3709 157.832 88.6106 157.762 88.8103 157.782C88.7903 158.002 88.7903 158.163 88.8302 158.243L88.9301 158.453C88.99 158.634 89.1098 158.874 89.1797 159.295Z" fill="#9E5E57"/>
</g>
<path d="M156.073 31.6561L153.147 35.4829C152.957 35.7334 152.658 35.8736 152.348 35.8536L147.545 35.6031C146.756 35.5631 146.267 36.4446 146.716 37.0958L149.442 41.0729C149.622 41.3334 149.662 41.664 149.542 41.9545L147.825 46.4626C147.545 47.2039 148.224 47.9453 148.983 47.7148L153.596 46.3424C153.896 46.2522 154.225 46.3223 154.465 46.5127L158.21 49.5481C158.819 50.049 159.737 49.6183 159.757 48.8268L159.877 44.0082C159.887 43.6976 160.047 43.4071 160.306 43.2368L164.341 40.6021C165 40.1713 164.88 39.1695 164.141 38.899L159.607 37.2962C159.308 37.196 159.088 36.9455 159.008 36.645L157.76 31.9867C157.54 31.2253 156.552 31.0249 156.073 31.6561Z" fill="#FFB75E"/>
<path d="M12.4912 49.0472L13.0204 52.7238C13.0503 52.9642 12.9705 53.2047 12.7907 53.365L10.0747 55.8795C9.62531 56.2902 9.84499 57.0415 10.4441 57.1417L14.0888 57.7729C14.3285 57.8129 14.5282 57.9732 14.6281 58.1936L16.1758 61.5596C16.4254 62.1106 17.2043 62.1307 17.4839 61.5997L19.2114 58.3238C19.3212 58.1135 19.5309 57.9632 19.7706 57.9331L23.4453 57.5024C24.0444 57.4322 24.304 56.7009 23.8846 56.2601L21.3084 53.5954C21.1386 53.4251 21.0687 53.1746 21.1186 52.9442L21.8476 49.3077C21.9674 48.7066 21.3483 48.2358 20.8091 48.5062L17.4939 50.1392C17.2742 50.2494 17.0246 50.2394 16.8149 50.1191L13.5896 48.3059C13.0404 48.0054 12.4013 48.4461 12.4912 49.0472Z" fill="#FFB75E"/>
<path d="M154.356 93.8371L153.926 97.6239C153.896 97.8744 153.746 98.0847 153.537 98.205L150.182 99.9982C149.632 100.289 149.652 101.09 150.222 101.351L153.677 102.933C153.906 103.034 154.066 103.244 154.106 103.484L154.775 107.241C154.885 107.852 155.654 108.083 156.073 107.622L158.639 104.807C158.809 104.626 159.049 104.536 159.298 104.566L163.063 105.097C163.682 105.187 164.131 104.526 163.822 103.975L161.945 100.659C161.825 100.439 161.815 100.178 161.925 99.9581L163.582 96.532C163.852 95.971 163.362 95.3398 162.753 95.46L159.029 96.2214C158.789 96.2715 158.539 96.2014 158.36 96.021L155.624 93.3763C155.174 92.9455 154.425 93.216 154.356 93.8371Z" fill="#FFB75E"/>
<path d="M118.437 119.323L118.397 117.63C118.387 117.159 118.767 116.769 119.246 116.779L129.172 117.029L128.842 119.724L118.437 119.323Z" fill="#6677A3"/>
<path d="M119.586 119.003L120.155 116.929C120.265 116.508 120.654 116.228 121.084 116.238L130.39 116.468C130.759 116.478 130.999 116.849 130.869 117.189L129.991 119.393L119.586 119.003Z" fill="#57617F"/>
<path d="M132.117 168.792L103.349 169.233C103.349 169.233 102.58 168.692 102.361 168.441C102.141 168.191 102.031 167.84 102.081 167.479L109.231 119.784C109.32 119.203 109.82 118.772 110.399 118.772L139.257 118.712C139.617 118.712 139.956 118.862 140.206 119.083C140.485 119.333 140.815 119.604 140.815 119.604L133.286 167.77C133.206 168.361 132.707 168.792 132.117 168.792Z" fill="#FFB75E"/>
<path d="M132.886 169.383L104.028 169.443C103.299 169.443 102.74 168.792 102.85 168.071L109.999 120.375C110.089 119.794 110.589 119.363 111.168 119.363L140.026 119.303C140.755 119.303 141.314 119.954 141.204 120.676L134.054 168.371C133.965 168.952 133.465 169.383 132.886 169.383Z" fill="#E88636"/>
<path d="M136.671 151.03C137.799 150.399 139.068 149.587 139.417 149.137C139.767 148.686 139.866 147.985 139.417 147.133C138.968 146.281 138.668 145.881 138.419 144.879C138.219 144.027 136.342 145.159 136.501 146.612C136.631 147.744 137.041 148.285 137.041 148.285L136.671 151.03Z" fill="#CE7F67"/>
<path d="M139.137 147.373C139.727 146.802 140.785 146.081 140.985 145.821C141.184 145.56 141.414 144.789 140.795 143.607C140.176 142.425 139.387 140.832 139.257 139.86C139.187 139.209 136.931 139.75 136.791 141.252C136.651 142.755 137.04 144.078 137.63 144.699" fill="#CE7F67"/>
<path d="M139.407 143.857C139.936 143.537 141.115 142.935 141.464 142.755C141.814 142.575 142.333 142.024 141.913 140.882C141.504 139.73 140.475 137.355 140.515 135.993C140.475 134.981 137.989 135.582 137.739 137.215C137.5 138.848 138.428 140.171 138.428 140.171" fill="#CE7F67"/>
<path d="M140.935 138.407C140.935 138.407 140.555 136.244 140.765 133.509C140.825 132.777 138.738 132.407 138.418 134.02C137.949 136.334 138.598 137.766 139.038 138.538" fill="#CE7F67"/>
<path d="M139.417 147.133C139.087 146.682 138.788 146.211 138.558 145.7C138.438 145.45 138.349 145.159 138.299 144.899C138.289 144.709 137.969 144.669 137.699 144.699C137.819 144.619 137.959 144.558 138.109 144.558C138.259 144.548 138.478 144.629 138.538 144.829C138.618 145.099 138.718 145.34 138.818 145.6C139.018 146.091 139.247 146.592 139.417 147.133Z" fill="#9E5E57"/>
<path d="M140.256 142.745C139.747 142.114 139.427 141.363 139.217 140.581C139.157 140.391 139.127 140.181 139.107 139.98C139.097 139.77 139.068 139.74 138.898 139.69C138.578 139.61 138.179 139.73 137.809 139.87C138.099 139.6 138.478 139.369 138.948 139.399C139.067 139.419 139.197 139.469 139.297 139.589C139.397 139.7 139.417 139.87 139.427 139.95L139.537 140.511C139.727 141.252 139.966 141.994 140.256 142.745Z" fill="#9E5E57"/>
<path d="M140.755 137.536C140.515 137.055 140.366 136.534 140.336 135.993L140.346 136.043C140.256 135.783 139.846 135.662 139.457 135.743C139.068 135.783 138.688 135.973 138.329 136.213C138.558 135.833 138.938 135.542 139.397 135.412C139.627 135.362 139.866 135.342 140.116 135.402C140.366 135.442 140.635 135.652 140.705 135.943V135.953V135.983C140.695 136.494 140.745 137.005 140.755 137.536Z" fill="#9E5E57"/>
<path d="M118.917 22.5798C118.917 22.5798 125.587 23.3913 127.674 41.9044C130.26 64.7854 123.061 78.7905 120.405 87.4861C117.179 98.0451 109.61 115.196 93.0742 116.178C81.8605 116.849 65.8138 106.47 61.7397 94.7992C59.6327 88.7684 60.3916 65.2463 62.9978 37.1659C65.4343 10.9189 97.6276 -6.29193 118.917 22.5798Z" fill="#CE7F67"/>
<path d="M96.8487 64.6352C95.7203 65.106 94.4322 64.5751 93.9628 63.4531C93.4935 62.321 94.0128 61.0287 95.1411 60.5579C96.2695 60.087 97.5576 60.618 98.0269 61.75C98.4963 62.862 97.967 64.1643 96.8487 64.6352Z" fill="#2A2D39"/>
<path d="M97.378 63.8337C97.0685 63.964 96.709 63.8137 96.5792 63.5031C96.4494 63.1926 96.5991 62.8319 96.9087 62.7017C97.2182 62.5715 97.5777 62.7217 97.7075 63.0323C97.8373 63.3428 97.6876 63.7035 97.378 63.8337Z" fill="white"/>
<path d="M120.934 73.0603C119.805 73.5311 118.517 73.0001 118.048 71.8781C117.579 70.7461 118.098 69.4538 119.226 68.9829C120.355 68.5121 121.643 69.0431 122.112 70.1751C122.591 71.2871 122.052 72.5894 120.934 73.0603Z" fill="#2A2D39"/>
<path d="M121.463 72.2588C121.153 72.3891 120.794 72.2388 120.664 71.9283C120.534 71.6177 120.684 71.257 120.994 71.1268C121.303 70.9966 121.663 71.1468 121.792 71.4574C121.922 71.7579 121.782 72.1286 121.463 72.2588Z" fill="white"/>
<path d="M107.783 84.7111L113.634 84.06C113.634 84.06 115.322 72.8399 116.45 59.8666C116.55 58.7246 112.156 58.4841 112.296 57.3221C108.681 63.4931 102.331 81.6957 102.331 81.6957L107.783 84.7111Z" fill="url(#paint0_linear)"/>
<path d="M113.634 84.06C113.634 84.06 111.508 85.8933 107.014 86.284C104.168 84.3705 102.341 81.7058 102.341 81.7058C102.341 81.7058 108.282 81.6957 113.634 84.06Z" fill="#9E5E57"/>
<path d="M95.8502 101.311C92.9843 99.728 92.0357 99.127 90.3881 99.2271C89.5293 95.8811 88.2911 90.5616 88.3211 87.3158C90.8574 90.1609 95.3709 91.8339 100.643 93.7373C104.328 95.0697 107.543 95.4504 109.49 95.3302C107.573 99.2672 102.92 102.162 99.9542 103.585C99.3151 101.952 99.9642 103.575 95.8502 101.311Z" fill="#31374C"/>
<path d="M100.044 94.9595C94.562 93.6071 90.5778 91.2228 88.0415 88.3677C88.0615 86.0535 88.2013 84.7712 88.371 83.0682C89.9088 85.8632 94.6619 89.6199 100.264 91.4632C105.866 93.3065 110.769 93.6171 110.769 93.6171C110.249 94.8092 109.45 94.8894 108.841 96.1416C106.884 96.2718 104.228 95.9913 100.044 94.9595Z" fill="white"/>
<path d="M96.589 100.159C98.5661 101.251 99.9741 102.363 100.973 103.415C100.973 103.415 97.1682 105.709 94.2923 103.254C91.766 101.101 90.2981 100.239 89.8588 98.2855C91.5064 98.1853 93.7232 98.576 96.589 100.159Z" fill="#F97A7A"/>
<path d="M115.022 92.3648C114.533 92.8858 113.854 93.1863 113.175 93.4067C112.496 93.6271 111.787 93.7373 111.068 93.7974C109.65 93.9276 108.222 93.7974 106.834 93.557C105.436 93.3366 104.078 92.9559 102.73 92.5852C101.382 92.1945 100.044 91.7538 98.746 91.2128C96.1398 90.1509 93.6434 88.7684 91.4865 86.9051C89.3696 85.0317 87.5922 82.6174 86.9032 79.7923L87.5822 79.632C88.2213 82.2768 89.8989 84.5809 91.9459 86.3841C94.0229 88.1773 96.4593 89.5398 99.0056 90.5716C101.552 91.6235 104.248 92.3648 106.964 92.7956C108.322 93.006 109.68 93.1563 111.048 93.1763C112.396 93.1162 113.814 93.0861 115.022 92.3648Z" fill="#9E5E57"/>
<path d="M83.4482 83.1483C83.618 82.397 84.0574 81.7057 84.5966 81.1548C85.1258 80.5837 85.7749 80.1229 86.4539 79.7522C87.8119 79.041 89.4695 78.6703 90.9474 79.1411C89.4296 79.2614 88.0715 79.7222 86.7934 80.3934C86.1543 80.724 85.5452 81.1247 84.976 81.5655C84.4168 82.0263 83.8776 82.5172 83.4482 83.1483Z" fill="#9E5E57"/>
<path d="M110.768 93.6271C110.768 93.6271 104.727 102.202 100.304 103.615C96.4791 104.837 86.6534 104.577 88.4608 82.7476" stroke="#9E5E57" stroke-width="0.7271" stroke-miterlimit="10" stroke-linejoin="round"/>
<path d="M55.7584 56.8212C55.9082 56.2 56.1678 55.599 56.6272 55.1081C57.0665 54.6072 57.7056 54.2766 58.3646 54.1263C59.0337 53.9861 59.7027 54.0161 60.3617 54.1163C60.6713 54.1664 61.0408 54.2365 61.3703 54.3968C61.6998 54.5571 61.9994 54.7575 62.249 54.9979C63.2775 55.9496 63.8467 57.1918 64.296 58.424C64.7254 59.6663 64.9551 60.9686 65.0549 62.2809C65.0749 62.5915 64.8452 62.872 64.5257 62.892C64.3959 62.9021 64.2661 62.862 64.1662 62.7919L64.1462 62.7818C63.7069 62.4813 63.2176 62.3411 62.7183 62.4212C62.219 62.4913 61.7198 62.7718 61.3004 63.1625C60.4616 63.9239 59.9523 65.096 59.9623 66.2481C60.0322 67.3901 60.5315 68.6524 61.4502 69.3937C61.8995 69.7744 62.4986 69.9747 63.0678 69.7844C63.647 69.6041 64.0664 69.0531 64.3759 68.4821C64.1762 69.0932 63.8567 69.7543 63.1876 70.0649C62.5386 70.3955 61.7198 70.2552 61.1206 69.8645C59.9124 69.0631 59.2334 67.7307 59.0536 66.2981C58.9238 64.8355 59.523 63.3929 60.5515 62.3511C61.0807 61.8402 61.7497 61.4294 62.5386 61.2992C63.3274 61.1589 64.1762 61.3793 64.8053 61.8301L63.8966 62.331C63.8267 61.1189 63.617 59.9067 63.2575 58.7446C62.908 57.5925 62.3988 56.4605 61.6199 55.629C61.4302 55.4186 61.2105 55.2483 60.9808 55.1181C60.7612 54.9879 60.5015 54.9077 60.202 54.8276C59.6228 54.6873 59.0237 54.6072 58.4345 54.6573C57.8554 54.7074 57.2762 54.9077 56.8269 55.3084C56.3675 55.7092 56.0081 56.2401 55.7584 56.8212Z" fill="#9E5E57"/>
<path opacity="0.2" d="M92.9615 69.0605C93.7981 67.9403 92.9485 65.8838 91.064 64.4672C89.1794 63.0507 86.9735 62.8105 86.1369 63.9307C85.3003 65.051 86.1498 67.1075 88.0344 68.524C89.919 69.9406 92.1249 70.1808 92.9615 69.0605Z" fill="#B55050"/>
<path opacity="0.2" d="M119.744 79.7769C121.893 79.5915 123.545 78.4045 123.436 77.1256C123.326 75.8468 121.496 74.9604 119.347 75.1458C117.199 75.3312 115.546 76.5182 115.656 77.797C115.766 79.0759 117.596 79.9623 119.744 79.7769Z" fill="#B55050"/>
<path d="M72.4141 1.65228C60.9708 5.46912 57.8753 10.5182 57.8753 10.5182C27.6092 24.5132 40.83 58.6244 30.1255 78.9007C21.2484 95.7108 21.7677 107.542 34.3594 114.014C57.8852 126.085 86.5736 117.74 75.7593 98.2754C67.3914 83.2084 69.8678 66.3883 69.8678 66.3883C69.8678 66.3883 85.3454 43.2568 85.3354 30.7344C118.547 20.1554 126.795 42.9262 130.989 49.6483C130.989 49.6483 138.378 22.4696 116.84 9.95716C105.306 3.23512 86.6035 -3.09623 72.4141 1.65228Z" fill="#2A2D39"/>
<path d="M91.3367 51.6218C91.3367 51.6218 97.6675 47.4243 103.559 50.9105C104.128 51.2511 104.747 50.5699 104.348 50.039C102.021 46.9635 97.4678 43.5974 91.3367 51.6218Z" fill="#2A2D39"/>
<path d="M128.732 61.3092C128.732 61.3092 125.627 55.3585 119.606 55.5388C119.027 55.5589 118.837 54.7675 119.366 54.527C122.462 53.1446 127.404 52.4834 128.732 61.3092Z" fill="#2A2D39"/>
<path d="M81.3113 153.274L68.7496 160.908C68.7496 160.908 57.1164 154.777 59.8125 162.1C61.7198 167.289 63.7768 171.056 65.3046 171.907C69.6682 174.352 82.7492 160.347 82.7492 160.347C83.6579 162.08 81.3113 153.274 81.3113 153.274Z" fill="#CE7F67"/>
<defs>
<linearGradient id="paint0_linear" x1="110.696" y1="71.04" x2="103.459" y2="101.571" gradientUnits="userSpaceOnUse">
<stop stop-color="#CE7F67"/>
<stop offset="1" stop-color="#9E5E57"/>
</linearGradient>
</defs>
</svg>
