<svg width="24" height="24" viewBox="0 0 24 24" fill="none" xmlns="http://www.w3.org/2000/svg">
<path fill-rule="evenodd" clip-rule="evenodd" d="M11.9999 21C16.9704 21 20.9999 16.9706 20.9999 12C20.9999 7.02944 16.9704 3 11.9999 3C7.02931 3 2.99988 7.02944 2.99988 12C2.99988 16.9706 7.02931 21 11.9999 21ZM11.9999 24C18.6273 24 23.9999 18.6274 23.9999 12C23.9999 5.37258 18.6273 0 11.9999 0C5.37246 0 -0.00012207 5.37258 -0.00012207 12C-0.00012207 18.6274 5.37246 24 11.9999 24Z" fill="#FFDCA9"/>
<path fill-rule="evenodd" clip-rule="evenodd" d="M17.3969 4.79766C15.8325 3.62543 13.929 2.99441 11.9741 3.00004L11.9655 4.96677e-05C14.572 -0.00744708 17.11 0.833902 19.1959 2.39688C21.2817 3.95986 22.802 6.15949 23.5267 8.66316C24.2515 11.1668 24.1414 13.8384 23.2131 16.274C22.2848 18.7095 20.5887 20.7766 18.3813 22.1626C16.1739 23.5487 13.5752 24.1784 10.9782 23.9564C8.38122 23.7345 5.92708 22.673 3.98688 20.9325C2.04669 19.192 0.725933 16.8671 0.224325 14.3094C-0.277284 11.7516 0.0675266 9.10009 1.20662 6.7557L3.90497 8.06677C3.05065 9.82507 2.79204 11.8137 3.16825 13.732C3.54445 15.6503 4.53502 17.394 5.99016 18.6994C7.44531 20.0048 9.28592 20.8009 11.2337 20.9673C13.1814 21.1338 15.1304 20.6615 16.786 19.622C18.4415 18.5824 19.7136 17.0321 20.4098 15.2055C21.1061 13.3788 21.1886 11.3751 20.6451 9.49737C20.1015 7.61961 18.9613 5.9699 17.3969 4.79766Z" fill="#FFA733"/>
</svg>
