<svg width="19" height="19" viewBox="0 0 19 19" fill="none" xmlns="http://www.w3.org/2000/svg">
<path d="M9.23529 0C8.22053 0 7.22856 0.293245 6.38482 0.842652C5.54108 1.39206 4.88346 2.17295 4.49513 3.08658C4.1068 4.00021 4.00519 5.00555 4.20316 5.97545C4.40113 6.94536 4.88978 7.83627 5.60733 8.53553C6.32487 9.2348 7.23908 9.711 8.23434 9.90393C9.2296 10.0969 10.2612 9.99784 11.1987 9.6194C12.1363 9.24096 12.9376 8.6001 13.5013 7.77785C14.0651 6.95561 14.366 5.98891 14.366 5C14.366 3.67392 13.8255 2.40215 12.8633 1.46447C11.9011 0.526784 10.596 0 9.23529 0ZM9.23529 8C8.62644 8 8.03125 7.82405 7.52501 7.49441C7.01876 7.16476 6.62419 6.69623 6.39119 6.14805C6.1582 5.59987 6.09723 4.99667 6.21601 4.41473C6.3348 3.83279 6.62799 3.29824 7.05851 2.87868C7.48904 2.45912 8.03757 2.1734 8.63472 2.05764C9.23188 1.94189 9.85085 2.0013 10.4134 2.22836C10.9759 2.45542 11.4567 2.83994 11.7949 3.33329C12.1332 3.82664 12.3137 4.40666 12.3137 5C12.3137 5.79565 11.9894 6.55871 11.4121 7.12132C10.8348 7.68393 10.0517 8 9.23529 8ZM18.4706 19V18C18.4706 16.1435 17.7138 14.363 16.3667 13.0503C15.0197 11.7375 13.1926 11 11.2876 11H7.18301C5.27795 11 3.45093 11.7375 2.10385 13.0503C0.756779 14.363 0 16.1435 0 18V19H2.05229V18C2.05229 16.6739 2.59284 15.4021 3.55504 14.4645C4.51724 13.5268 5.82226 13 7.18301 13H11.2876C12.6483 13 13.9534 13.5268 14.9155 14.4645C15.8777 15.4021 16.4183 16.6739 16.4183 18V19H18.4706Z" fill="#69757C"/>
</svg>
