<?xml version="1.0" encoding="utf-8"?>
<!-- Generator: Adobe Illustrator 22.1.0, SVG Export Plug-In . SVG Version: 6.00 Build 0)  -->
<svg version="1.1" id="Layer_1" xmlns="http://www.w3.org/2000/svg" xmlns:xlink="http://www.w3.org/1999/xlink" x="0px" y="0px"
	 viewBox="0 0 64 64" style="enable-background:new 0 0 64 64;" xml:space="preserve">
<style type="text/css">
	.st0{fill:#E1E4F4;}
	.st1{fill:#57617F;}
	.st2{fill:#FFFFFF;}
	.st3{fill:#FFB75E;}
	.st4{fill:#EF3F54;}
</style>
<path class="st0" d="M54.2,51.2l-31.6,8.5c-4.3,1.1-8.6-1.4-9.7-5.6L4.4,22.5c-1.1-4.3,1.4-8.6,5.6-9.7l31.6-8.5
	c4.3-1.1,8.6,1.4,9.7,5.6l8.5,31.6C60.9,45.7,58.4,50.1,54.2,51.2z"/>
<path class="st1" d="M38.9,1.8l-22,27.1c-1.1,1.2-0.8,3.2,0.6,4l34.3,19.8c2,1.2,4.5-0.7,3.8-3L43.4,3.8c-0.3-1-1-1.9-1.9-2.4
	C40.7,0.8,39.6,1,38.9,1.8z"/>
<path class="st1" d="M36.6,3l2.8-1.6l15,51.3l-2.8,1.6L36.6,3z"/>
<path class="st2" d="M36.2,3.3l-22,27.1c-1.1,1.2-0.8,3.2,0.6,4l34.3,19.8c2,1.2,4.5-0.7,3.8-3L40.8,5.3c-0.3-1-1-1.9-1.9-2.4
	C38,2.4,36.9,2.6,36.2,3.3z"/>
<path class="st3" d="M36.7,7.2L17.8,31c-0.6,0.6-0.4,1.7,0.3,2.1l29.8,17.2c0.8,0.5,1.7-0.3,1.5-1.1L38.5,7.8
	c-0.1-0.3-0.3-0.6-0.6-0.8C37.5,6.8,37,6.9,36.7,7.2z"/>
<path class="st4" d="M38.4,18.5c0.2-0.7,0.2-1.8-0.6-2.2L35.6,15c-0.7-0.2-1.4,0.3-1.5,1.1l-0.7,13.2c-0.1,0.7,0.3,1.5,0.9,1.8
	c0.6,0.3,1.1,0.1,1.3-0.6l2.9-12.7"/>
<path class="st4" d="M34.1,32.8c-1.3-0.5-2.4,0.1-2.6,1.4v0.1c-0.2,1.2,0.5,2.5,1.8,3c1.3,0.5,2.4-0.1,2.6-1.4v-0.1
	C36.1,34.6,35.3,33.3,34.1,32.8z"/>
</svg>
