<svg width="20" height="20" viewBox="0 0 20 20" fill="none" xmlns="http://www.w3.org/2000/svg">
<path d="M8.57482 3.21684L1.51649 15.0002C1.37096 15.2522 1.29396 15.5379 1.29314 15.8289C1.29233 16.12 1.36773 16.4061 1.51184 16.6589C1.65595 16.9118 1.86376 17.1225 2.11458 17.27C2.36539 17.4176 2.65049 17.497 2.94149 17.5002H17.0582C17.3492 17.497 17.6342 17.4176 17.8851 17.27C18.1359 17.1225 18.3437 16.9118 18.4878 16.6589C18.6319 16.4061 18.7073 16.12 18.7065 15.8289C18.7057 15.5379 18.6287 15.2522 18.4832 15.0002L11.4248 3.21684C11.2763 2.97193 11.0671 2.76944 10.8175 2.62891C10.5679 2.48838 10.2863 2.41455 9.99982 2.41455C9.71337 2.41455 9.43176 2.48838 9.18216 2.62891C8.93255 2.76944 8.72338 2.97193 8.57482 3.21684V3.21684Z" stroke="#D92D20" stroke-width="2" stroke-linecap="round" stroke-linejoin="round"/>
<path d="M10 7.5V10.8333" stroke="#D92D20" stroke-width="2" stroke-linecap="round" stroke-linejoin="round"/>
<path d="M10 14.1666H10.0083" stroke="#D92D20" stroke-width="2" stroke-linecap="round" stroke-linejoin="round"/>
</svg>
